# xmcd
#
# Track frame offsets:
# 150
# 33980
# 49054
# 68671
# 118116
# 156548
# 184676
# 205139
# 234764
# 257334
# 273286
# 298995
# 312145
# 338746
#
# Disc length: 4705 seconds
#
# Revision: 0
# Processed by: cddbd v1.4PL0 Copyright (c) Steve Scherf et al.
# Submitted via: Audion 3.0.0 (http://www.panic.com/audion/)
#
DISCID=c5125f0e
DTITLE=dfgh - efgh
DYEAR=1900
DGENRE=
TTITLE0=dfgh
TTITLE1=df8op
TTITLE2=dftyuk
TTITLE3=dkhjl
TTITLE4=ndfg
TTITLE5=nm,guiio
TTITLE6=ghjort689i
TTITLE7=yuotol
TTITLE8=yjklyuik
TTITLE9=67489ituilghjk
TTITLE10=38rikjk,gh
TTITLE11=yuo5698
TTITLE12=fuhi46
TTITLE13=yui
EXTD=
EXTT0=
EXTT1=
EXTT2=
EXTT3=
EXTT4=
EXTT5=
EXTT6=
EXTT7=
EXTT8=
EXTT9=
EXTT10=
EXTT11=
EXTT12=
EXTT13=
PLAYORDER=
